# Blender 5.0.1
# www.blender.org
mtllib u_pipes_water.mtl
o Plane.001
v -6.592111 5.931301 -0.979107
v -6.352260 5.931301 -1.218958
v -6.024617 5.931301 -1.306750
v -5.696975 5.931301 -1.218958
v -5.457124 5.931301 -0.979107
v -5.369332 5.931301 -0.651465
v -5.457123 5.931301 -0.323822
v -5.696974 5.931301 -0.083971
v -6.024617 5.931301 0.003821
v -6.352259 5.931301 -0.083970
v -6.592111 5.931301 -0.323821
v -6.679903 5.931301 -0.651464
v -6.606885 2.993461 -0.982543
v -6.363931 2.997321 -1.229090
v -6.024248 2.999504 -1.321461
v -5.683161 2.995256 -1.227685
v -5.441106 2.987308 -0.979416
v -5.355456 2.983614 -0.651465
v -5.441105 2.987308 -0.323514
v -5.683160 2.995256 -0.075245
v -6.024247 2.999504 0.018532
v -6.363931 2.997321 -0.073838
v -6.606884 2.993461 -0.320385
v -6.694397 2.991832 -0.651464
v 1.557650 2.993461 -0.982543
v 1.314697 2.997321 -1.229090
v 0.975014 2.999504 -1.321461
v 0.633927 2.995256 -1.227685
v 0.391871 2.987308 -0.979416
v 0.306222 2.983614 -0.651465
v 0.391871 2.987308 -0.323514
v 0.633926 2.995256 -0.075245
v 0.975013 2.999504 0.018532
v 1.314696 2.997321 -0.073838
v 1.557650 2.993461 -0.320385
v 1.645162 2.991832 -0.651464
v 1.542877 5.931301 -0.979107
v 1.303026 5.931301 -1.218958
v 0.975383 5.931301 -1.306750
v 0.647740 5.931301 -1.218958
v 0.407889 5.931301 -0.979107
v 0.320097 5.931301 -0.651465
v 0.407889 5.931301 -0.323822
v 0.647740 5.931301 -0.083971
v 0.975382 5.931301 0.003821
v 1.303025 5.931301 -0.083970
v 1.542876 5.931301 -0.323821
v 1.630668 5.931301 -0.651464
vn -0.9664 0.0050 -0.2572
vn -0.7097 0.0048 -0.7045
vn -0.2607 0.0046 -0.9654
vn 0.2620 0.0045 -0.9650
vn 0.7117 0.0047 -0.7025
vn 0.9667 0.0049 -0.2557
vn 0.9667 0.0049 0.2557
vn 0.7117 0.0047 0.7025
vn 0.2620 0.0045 0.9650
vn -0.2607 0.0046 0.9654
vn -0.7097 0.0048 0.7045
vn -0.9664 0.0050 0.2572
vn 0.9664 0.0050 -0.2572
vn 0.7097 0.0048 -0.7045
vn 0.2607 0.0046 -0.9654
vn -0.2620 0.0045 -0.9650
vn -0.7117 0.0047 -0.7025
vn -0.9667 0.0049 -0.2557
vn -0.9667 0.0049 0.2557
vn -0.7117 0.0047 0.7025
vn -0.2621 0.0045 0.9650
vn 0.2607 0.0046 0.9654
vn 0.7097 0.0048 0.7045
vn 0.9664 0.0050 0.2572
vn 0.0051 -1.0000 -0.0000
vn -0.0000 1.0000 -0.0000
vn -0.0051 -1.0000 -0.0000
vt 0.142857 1.000000
vt 0.285714 1.000000
vt 0.285714 0.916667
vt 0.142857 0.916667
vt 0.142857 0.083333
vt 0.285714 0.083333
vt 0.285714 0.000000
vt 0.142857 0.000000
vt 0.142857 0.166667
vt 0.285714 0.166667
vt 0.142857 0.250000
vt 0.285714 0.250000
vt 0.142857 0.333333
vt 0.285714 0.333333
vt 0.142857 0.416667
vt 0.285714 0.416667
vt 0.142857 0.500000
vt 0.285714 0.500000
vt 0.142857 0.583333
vt 0.285714 0.583333
vt 0.142857 0.666667
vt 0.285714 0.666667
vt 0.142857 0.750000
vt 0.285714 0.750000
vt 0.142857 0.833333
vt 0.285714 0.833333
vt 0.714286 1.000000
vt 0.857143 1.000000
vt 0.857143 0.916667
vt 0.714286 0.916667
vt 0.714286 0.083333
vt 0.857143 0.083333
vt 0.857143 0.000000
vt 0.714286 0.000000
vt 0.714286 0.166667
vt 0.857143 0.166667
vt 0.714286 0.250000
vt 0.857143 0.250000
vt 0.714286 0.333333
vt 0.857143 0.333333
vt 0.714286 0.416667
vt 0.857143 0.416667
vt 0.714286 0.500000
vt 0.857143 0.500000
vt 0.714286 0.583333
vt 0.857143 0.583333
vt 0.714286 0.666667
vt 0.857143 0.666667
vt 0.714286 0.750000
vt 0.857143 0.750000
vt 0.714286 0.833333
vt 0.857143 0.833333
s 0
f 1/1/1 13/2/1 24/3/1 12/4/1
f 2/5/2 14/6/2 13/7/2 1/8/2
f 3/9/3 15/10/3 14/6/3 2/5/3
f 4/11/4 16/12/4 15/10/4 3/9/4
f 5/13/5 17/14/5 16/12/5 4/11/5
f 6/15/6 18/16/6 17/14/6 5/13/6
f 7/17/7 19/18/7 18/16/7 6/15/7
f 8/19/8 20/20/8 19/18/8 7/17/8
f 9/21/9 21/22/9 20/20/9 8/19/9
f 10/23/10 22/24/10 21/22/10 9/21/10
f 11/25/11 23/26/11 22/24/11 10/23/11
f 12/4/12 24/3/12 23/26/12 11/25/12
f 25/27/13 37/28/13 48/29/13 36/30/13
f 26/31/14 38/32/14 37/33/14 25/34/14
f 27/35/15 39/36/15 38/32/15 26/31/15
f 28/37/16 40/38/16 39/36/16 27/35/16
f 29/39/17 41/40/17 40/38/17 28/37/17
f 30/41/18 42/42/18 41/40/18 29/39/18
f 31/43/19 43/44/19 42/42/19 30/41/19
f 32/45/20 44/46/20 43/44/20 31/43/20
f 33/47/21 45/48/21 44/46/21 32/45/21
f 34/49/22 46/50/22 45/48/22 33/47/22
f 35/51/23 47/52/23 46/50/23 34/49/23
f 36/30/24 48/29/24 47/52/24 35/51/24
f 36/30/25 35/51/25 34/49/25 33/47/25 32/45/25 31/43/25 30/41/25 29/39/25 28/37/25 27/35/25 26/31/25 25/34/25
f 48/29/26 37/33/26 38/32/26 39/36/26 40/38/26 41/40/26 42/42/26 43/44/26 44/46/26 45/48/26 46/50/26 47/52/26
f 24/3/27 13/7/27 14/6/27 15/10/27 16/12/27 17/14/27 18/16/27 19/18/27 20/20/27 21/22/27 22/24/27 23/26/27
f 12/4/26 11/25/26 10/23/26 9/21/26 8/19/26 7/17/26 6/15/26 5/13/26 4/11/26 3/9/26 2/5/26 1/8/26
